<svg id="Capa_1" enable-background="new 0 0 512 512" height="512" viewBox="0 0 512 512" width="512" xmlns="http://www.w3.org/2000/svg"><g><path d="m474.445 444.5h-30l30 60h30v-30c0-16.5-13.5-30-30-30z" fill="#728192"/><path d="m444.445 444.5h-36.698v60h66.698v-30c0-16.5-13.5-30-30-30z" fill="#8c98a7"/><path d="m422.747 324.5v90c24.853 0 45-20.147 45-45s-20.147-45-45-45z" fill="#728192"/><path d="m437.747 369.5c0-24.853-6.716-45-15-45-24.853 0-45 20.147-45 45s20.147 45 45 45c8.284 0 15-20.147 15-45z" fill="#8c98a7"/><path d="m407.747 444.5h-30l30 60h30v-30c0-16.5-13.5-30-30-30z" fill="#89c1ff"/><path d="m377.747 444.5h-36.698v60h66.698v-30c0-16.5-13.5-30-30-30z" fill="#b8d8ff"/><path d="m356.049 324.5v90c24.853 0 45-20.147 45-45s-20.147-45-45-45z" fill="#89c1ff"/><path d="m371.049 369.5c0-24.853-6.716-45-15-45-24.853 0-45 20.147-45 45s20.147 45 45 45c8.284 0 15-20.147 15-45z" fill="#b8d8ff"/><path d="m341.049 444.5h-30l30 60h30v-30c0-16.5-13.5-30-30-30z" fill="#60ba4d"/><path d="m311.049 444.5h-36.698v60h66.698v-30c0-16.5-13.5-30-30-30z" fill="#85cf75"/><path d="m289.351 324.5v90c24.853 0 45-20.147 45-45s-20.147-45-45-45z" fill="#60ba4d"/><path d="m304.351 369.5c0-24.853-6.716-45-15-45-24.853 0-45 20.147-45 45s20.147 45 45 45c8.284 0 15-20.147 15-45z" fill="#85cf75"/><path d="m274.351 444.5h-30l30 60h30v-30c0-16.5-13.5-30-30-30z" fill="#ffd17e"/><path d="m244.351 444.5h-36.698v60h66.698v-30c0-16.5-13.5-30-30-30z" fill="#ffeac3"/><path d="m222.653 324.5v90c24.853 0 45-20.147 45-45s-20.147-45-45-45z" fill="#ffd17e"/><path d="m237.653 369.5c0-24.853-6.716-45-15-45-24.853 0-45 20.147-45 45s20.147 45 45 45c8.284 0 15-20.147 15-45z" fill="#ffeac3"/><path d="m207.653 444.5h-30l30 60h30v-30c0-16.5-13.5-30-30-30z" fill="#ff9441"/><path d="m177.653 444.5h-36.698v60h66.698v-30c0-16.5-13.5-30-30-30z" fill="#ffb739"/><path d="m155.955 324.5v90c24.853 0 45-20.147 45-45s-20.147-45-45-45z" fill="#ff9441"/><path d="m170.955 369.5c0-24.853-6.716-45-15-45-24.853 0-45 20.147-45 45s20.147 45 45 45c8.284 0 15-20.147 15-45z" fill="#ffb739"/><path d="m140.955 444.5h-30l30 60h30v-30c0-16.5-13.5-30-30-30z" fill="#ff4c50"/><path d="m37.555 444.5c-16.5 0-30 13.5-30 30v30h30l30-60z" fill="#ff9441"/><path d="m110.955 444.5h-43.4c-16.5 0-30 13.5-30 30v30h103.4v-30c0-16.5-13.5-30-30-30z" fill="#ff7149"/><path d="m89.257 324.5v90c24.853 0 45-20.147 45-45s-20.147-45-45-45z" fill="#ff4c50"/><path d="m104.257 369.5c0-24.853-6.716-45-15-45-24.853 0-45 20.147-45 45s20.147 45 45 45c8.284 0 15-20.147 15-45z" fill="#ff7149"/><path d="m422.747 217.5h-30l15 30v32c0 8.284 6.716 15 15 15s15-6.716 15-15v-47c0-8.284-6.716-15-15-15z" fill="#c0c8d2"/><path d="m392.747 217.5h-303.49c-8.284 0-15 6.716-15 15v47c0 8.284 6.716 15 15 15s15-6.716 15-15v-32h36.698v32c0 8.284 6.716 15 15 15s15-6.716 15-15v-32h36.698v32c0 8.284 6.716 15 15 15s15-6.716 15-15v-32h36.698v32c0 8.284 6.716 15 15 15s15-6.716 15-15v-32h36.698v32c0 8.284 6.716 15 15 15s15-6.716 15-15v-32h36.698v-15c0-8.284-6.716-15-15-15z" fill="#dae0e7"/><path d="m308.778 127.5h-30l30 60h30v-30c0-16.5-13.5-30-30-30z" fill="#1b74d6"/><path d="m203.112 127.5c-16.5 0-30 13.5-30 30v30h30l30-60z" fill="#54a5ff"/><path d="m278.778 127.5h-45.667c-16.5 0-30 13.5-30 30v30h105.666l.001-30c0-16.5-13.5-30-30-30z" fill="#1e8aff"/><path d="m255.616 7.5v90c24.853 0 45-20.147 45-45s-20.147-45-45-45z" fill="#1b74d6"/><path d="m270.616 52.5c0-24.853-6.716-45-15-45-24.853 0-45 20.147-45 45s20.147 45 45 45c8.284 0 15-20.147 15-45z" fill="#1e8aff"/><path d="m474.443 437h-436.886c-20.678 0-37.5 16.822-37.5 37.5v30c0 4.142 3.357 7.5 7.5 7.5h496.887c4.143 0 7.5-3.358 7.5-7.5v-30c-.001-20.678-16.823-37.5-37.501-37.5zm-44.198 37.5v22.5h-15v-22.5c0-4.142-3.357-7.5-7.5-7.5s-7.5 3.358-7.5 7.5v22.5h-21.698v-22.5c0-8.436-2.801-16.228-7.52-22.5h36.719c12.405 0 22.499 10.093 22.499 22.5zm-66.698 0v22.5h-15v-22.5c0-4.142-3.357-7.5-7.5-7.5s-7.5 3.358-7.5 7.5v22.5h-21.698v-22.5c0-8.436-2.801-16.228-7.52-22.5h36.719c12.405 0 22.499 10.093 22.499 22.5zm-66.698 0v22.5h-15v-22.5c0-4.142-3.357-7.5-7.5-7.5s-7.5 3.358-7.5 7.5v22.5h-21.697v-22.5c0-8.436-2.801-16.228-7.52-22.5h36.718c12.405 0 22.499 10.093 22.499 22.5zm-66.698 0v22.5h-15v-22.5c0-4.142-3.357-7.5-7.5-7.5s-7.5 3.358-7.5 7.5v22.5h-21.698v-22.5c0-8.436-2.801-16.228-7.52-22.5h36.719c12.406 0 22.499 10.093 22.499 22.5zm-215.094 0c0-12.407 10.094-22.5 22.5-22.5h103.396c12.406 0 22.5 10.093 22.5 22.5v22.5h-15v-22.5c0-4.142-3.357-7.5-7.5-7.5s-7.5 3.358-7.5 7.5v22.5h-88.396v-22.5c0-4.142-3.357-7.5-7.5-7.5s-7.5 3.358-7.5 7.5v22.5h-15zm481.886 22.5h-15v-22.5c0-4.142-3.357-7.5-7.5-7.5s-7.5 3.358-7.5 7.5v22.5h-21.698v-22.5c0-8.436-2.801-16.228-7.52-22.5h36.719c12.406 0 22.5 10.093 22.5 22.5v22.5z"/><path d="m89.255 422c12.651 0 24.27-4.498 33.344-11.979 9.338 7.676 21.135 11.979 33.354 11.979 12.651 0 24.27-4.498 33.344-11.979 9.339 7.676 21.136 11.979 33.354 11.979 12.651 0 24.27-4.498 33.344-11.979 9.339 7.676 21.135 11.979 33.353 11.979 12.651 0 24.271-4.499 33.345-11.979 9.339 7.676 21.135 11.979 33.354 11.979 12.651 0 24.271-4.499 33.345-11.979 9.338 7.676 21.135 11.979 33.354 11.979 28.948 0 52.5-23.551 52.5-52.5s-23.552-52.5-52.5-52.5c-12.219 0-24.016 4.303-33.354 11.979-9.074-7.48-20.694-11.979-33.344-11.979-12.218 0-24.015 4.303-33.354 11.979-9.075-7.48-20.694-11.979-33.345-11.979-12.218 0-24.014 4.303-33.353 11.979-9.074-7.48-20.694-11.979-33.344-11.979-12.218 0-24.015 4.303-33.354 11.979-9.074-7.48-20.694-11.979-33.344-11.979-12.219 0-24.016 4.303-33.354 11.979-9.075-7.481-20.694-11.979-33.345-11.979-28.948 0-52.5 23.551-52.5 52.5s23.552 52.5 52.5 52.5zm370.99-52.5c0 20.678-16.822 37.5-37.5 37.5-8.472 0-16.662-2.896-23.237-8.082 5.702-8.397 9.039-18.525 9.039-29.418s-3.337-21.021-9.039-29.418c6.575-5.186 14.765-8.082 23.237-8.082 20.678 0 37.5 16.822 37.5 37.5zm-66.698 0c0 20.678-16.822 37.5-37.5 37.5-8.471 0-16.661-2.896-23.237-8.083 5.702-8.397 9.039-18.524 9.039-29.417s-3.337-21.02-9.039-29.418c6.576-5.186 14.765-8.082 23.237-8.082 20.678 0 37.5 16.822 37.5 37.5zm-66.698 0c0 20.678-16.822 37.5-37.5 37.5-8.471 0-16.661-2.896-23.236-8.082 5.702-8.397 9.039-18.525 9.039-29.418s-3.337-21.021-9.039-29.418c6.575-5.186 14.765-8.082 23.236-8.082 20.677 0 37.5 16.822 37.5 37.5zm-66.698 0c0 20.678-16.822 37.5-37.5 37.5-8.472 0-16.662-2.896-23.237-8.082 5.702-8.397 9.039-18.525 9.039-29.418s-3.337-21.021-9.039-29.418c6.575-5.186 14.765-8.082 23.237-8.082 20.678 0 37.5 16.822 37.5 37.5zm-66.698 0c0 20.678-16.822 37.5-37.5 37.5-8.472 0-16.662-2.896-23.237-8.082 5.702-8.397 9.039-18.525 9.039-29.418s-3.337-21.021-9.039-29.418c6.575-5.186 14.765-8.082 23.237-8.082 20.678 0 37.5 16.822 37.5 37.5zm-104.198-37.5c20.678 0 37.5 16.822 37.5 37.5s-16.822 37.5-37.5 37.5-37.5-16.822-37.5-37.5 16.822-37.5 37.5-37.5z"/><path d="m89.255 302c12.406 0 22.5-10.093 22.5-22.5v-24.5h21.698v24.5c0 12.407 10.094 22.5 22.5 22.5s22.5-10.093 22.5-22.5v-24.5h21.698v24.5c0 12.407 10.094 22.5 22.5 22.5s22.5-10.093 22.5-22.5v-24.5h21.697v24.5c0 12.407 10.094 22.5 22.5 22.5s22.5-10.093 22.5-22.5v-24.5h21.698v24.5c0 12.407 10.094 22.5 22.5 22.5s22.5-10.093 22.5-22.5v-24.5h21.698v24.5c0 12.407 10.094 22.5 22.5 22.5s22.5-10.093 22.5-22.5v-47c0-12.407-10.094-22.5-22.5-22.5h-249.635c-4.143 0-7.5 3.358-7.5 7.5s3.357 7.5 7.5 7.5h249.636c4.136 0 7.5 3.364 7.5 7.5v47c0 4.136-3.364 7.5-7.5 7.5s-7.5-3.364-7.5-7.5v-32c0-4.142-3.357-7.5-7.5-7.5h-36.698c-4.143 0-7.5 3.358-7.5 7.5v32c0 4.136-3.364 7.5-7.5 7.5s-7.5-3.364-7.5-7.5v-32c0-4.142-3.357-7.5-7.5-7.5h-36.698c-4.143 0-7.5 3.358-7.5 7.5v32c0 4.136-3.364 7.5-7.5 7.5s-7.5-3.364-7.5-7.5v-32c0-4.142-3.357-7.5-7.5-7.5h-36.697c-4.143 0-7.5 3.358-7.5 7.5v32c0 4.136-3.364 7.5-7.5 7.5s-7.5-3.364-7.5-7.5v-32c0-4.142-3.357-7.5-7.5-7.5h-36.698c-4.143 0-7.5 3.358-7.5 7.5v32c0 4.136-3.364 7.5-7.5 7.5s-7.5-3.364-7.5-7.5v-32c0-4.142-3.357-7.5-7.5-7.5h-36.698c-4.143 0-7.5 3.358-7.5 7.5v32c0 4.136-3.364 7.5-7.5 7.5s-7.5-3.364-7.5-7.5v-47c0-4.136 3.364-7.5 7.5-7.5h53.854c4.143 0 7.5-3.358 7.5-7.5s-3.357-7.5-7.5-7.5h-53.855c-12.406 0-22.5 10.093-22.5 22.5v47c0 12.407 10.094 22.5 22.5 22.5z"/><path d="m173.109 195h165.667c4.143 0 7.5-3.358 7.5-7.5v-30c0-20.678-16.822-37.5-37.5-37.5h-105.667c-20.678 0-37.5 16.822-37.5 37.5v30c0 4.142 3.358 7.5 7.5 7.5zm7.5-37.5c0-12.407 10.094-22.5 22.5-22.5h105.667c12.406 0 22.5 10.093 22.5 22.5v22.5h-15.001v-22.5c0-4.142-3.357-7.5-7.5-7.5s-7.5 3.358-7.5 7.5v22.5h-90.666v-22.5c0-4.142-3.357-7.5-7.5-7.5s-7.5 3.358-7.5 7.5v22.5h-15z"/><path d="m255.614 105c28.948 0 52.5-23.551 52.5-52.5s-23.551-52.5-52.5-52.5-52.5 23.551-52.5 52.5 23.552 52.5 52.5 52.5zm0-90c20.678 0 37.5 16.822 37.5 37.5s-16.822 37.5-37.5 37.5-37.5-16.822-37.5-37.5 16.823-37.5 37.5-37.5z"/></g></svg>