<svg enable-background="new 0 0 24 24" height="512" viewBox="0 0 24 24" width="512" xmlns="http://www.w3.org/2000/svg"><path d="m12.008 24v-12.324l11.992-5.838v6.653 5.023z" fill="#ffb74d"/><path d="m11.992 24v-12.324l-11.992-5.838v6.653 5.023z" fill="#ffcc80"/><path d="m0 5.832 11.988 5.844 4.668-2.268 1.944-.948 5.4-2.628-11.988-5.832-5.112 2.484-2.04.984z" fill="#ffa726"/><path d="m5.122 3.355 11.86 5.909v5.969l1.88-.958v-5.927l-11.7-5.976z" fill="#795548"/><path d="m0 5.838v11.676l11.992 6.486v-12.324l-.002-.001-.002.001-2.938-1.432z" fill="#deb26f"/><path d="m12 .006-5.1 2.478-2.04.984-4.86 2.364 9.05 4.412 2.938 1.432.002-.001.01-.005v-4.888l-6.878-3.427 2.04-.983 4.838 2.471z" fill="#de9121"/><path d="m7.162 2.372-2.04.983 6.878 3.427v-1.939z" fill="#694a3f"/></svg>