<svg id="color" height="512" viewBox="0 0 24 24" width="512" xmlns="http://www.w3.org/2000/svg"><path d="m16.25 24h-13.5c-1.517 0-2.75-1.233-2.75-2.75v-9c0-.965.785-1.75 1.75-1.75.138 0 .25-.112.25-.25v-2.5c0-.138-.112-.25-.25-.25-.965 0-1.75-.785-1.75-1.75v-3c0-1.517 1.233-2.75 2.75-2.75h9.671c.734 0 1.425.286 1.944.806l3.829 3.828c.52.519.806 1.21.806 1.945v14.671c0 1.517-1.234 2.75-2.75 2.75z" fill="#607d8b"/><g fill="#cfd8dc"><path d="m5.5 0v4.25c0 .41-.34.75-.75.75s-.75-.34-.75-.75v-4.25z"/><path d="m9.25 0v4.25c0 .41-.34.75-.75.75s-.75-.34-.75-.75v-4.25z"/><path d="m13 .06v4.19c0 .41-.34.75-.75.75s-.75-.34-.75-.75v-4.25h.92c.2 0 .39.02.58.06z"/><path d="m14.25 21h-9.5c-.965 0-1.75-.785-1.75-1.75v-4.5c0-.965.785-1.75 1.75-1.75h9.5c.965 0 1.75.785 1.75 1.75v4.5c0 .965-.785 1.75-1.75 1.75z"/></g><path d="m7.75 0h-2.25v4.25c0 .41-.34.75-.75.75s-.75-.34-.75-.75v-4.25h-1.25c-1.517 0-2.75 1.233-2.75 2.75v3c0 .965.785 1.75 1.75 1.75.138 0 .25.112.25.25v2.5c0 .138-.112.25-.25.25-.965 0-1.75.785-1.75 1.75v9c0 1.517 1.233 2.75 2.75 2.75h5.75v-3h-3.75c-.965 0-1.75-.785-1.75-1.75v-4.5c0-.965.785-1.75 1.75-1.75h3.75v-8c-.41 0-.75-.34-.75-.75z" fill="#546d79"/><path d="m5.5 0h-1.5v4.25c0 .41.34.75.75.75s.75-.34.75-.75z" fill="#b4bcc0"/><path d="m8.5 0h-.75v4.25c0 .41.34.75.75.75z" fill="#b4bcc0"/><path d="m8.5 13h-3.75c-.965 0-1.75.785-1.75 1.75v4.5c0 .965.785 1.75 1.75 1.75h3.75z" fill="#b4bcc0"/><path d="m23.943 17.213c-.116-.28-.39-.463-.693-.463h-1.75v-3.75c0-.552-.448-1-1-1s-1 .448-1 1v3.75h-1.75c-.303 0-.577.183-.693.463s-.052.603.163.817l2.75 2.75c.146.147.338.22.53.22s.384-.073.53-.22l2.75-2.75c.215-.214.279-.537.163-.817z" fill="#ffc107"/><path d="m23 24h-5c-.552 0-1-.448-1-1s.448-1 1-1h5c.552 0 1 .448 1 1s-.448 1-1 1z" fill="#ffc107"/><path d="m20.5 12c-.552 0-1 .448-1 1v3.75h-1.75c-.303 0-.577.183-.693.463s-.052.603.163.817l2.75 2.75c.146.147.338.22.53.22z" fill="#dea806"/><path d="m20.5 22h-2.5c-.552 0-1 .448-1 1s.448 1 1 1h2.5z" fill="#dea806"/></svg>