<svg id="Capa_1" enable-background="new 0 0 512 512" height="512" viewBox="0 0 512 512" width="512" xmlns="http://www.w3.org/2000/svg"><g><path d="m255.321 178.359c-2.055.861-4.133-1.304-6.235-.495-27.948 10.757-59.966 16.875-94.008 16.875-46.037 0-88.389-11.174-121.96-29.9-3.235-1.804-7.29.434-7.409 4.136-.022.688-.033 1.378-.033 2.07 0 50.648 57.935 91.707 129.402 91.707 56.646 0 104.784-25.796 122.314-61.716 1.007-2.063-1.088-4.158-.287-6.285z" fill="#ffd064"/><path d="m261.008 179.809c-18.261 34.949-65.683 59.869-121.348 59.869-45.229 0-85.031-16.449-108.165-41.362 16.384 37.33 65.518 64.434 123.584 64.434 56.646 0 104.784-25.796 122.314-61.716 1.007-2.063-1.088-4.158-.287-6.285z" fill="#ffc250"/><g><path d="m39.029 189.559c-2.268 0-4.507-1.024-5.983-2.97-15.737-20.761-19.417-54.397-19.566-55.819-.432-4.12 2.558-7.809 6.678-8.24 4.112-.435 7.805 2.555 8.24 6.672.033.307 3.416 30.93 16.603 48.326 2.502 3.301 1.854 8.005-1.446 10.508-1.356 1.027-2.948 1.523-4.526 1.523z" fill="#ffd064"/></g><g><path d="m277.163 167.069c-1.039-.828-2.464-.951-3.637-.326-7.725 4.115-15.895 7.832-24.441 11.121l28.307 23.172c4.071-8.341 6.493-17.227 6.986-26.464.057-1.064-.424-2.088-1.257-2.752z" fill="#9d6b6b"/></g><g><path d="m277.393 201.035c4.071-8.341 6.493-17.227 6.986-26.464.057-1.064-.424-2.088-1.257-2.752l-5.959-4.75c-1.039-.828-2.464-.951-3.637-.326-2.804 1.494-5.687 2.916-8.605 4.304-.002.001-.003.002-.005.003-1.78 4.866-4.114 9.572-6.942 14.089z" fill="#8b5e5e"/></g><g><path d="m330.694 95.855h92.621v241.426h-92.621z" fill="#a298a5"/></g><g><path d="m394.67 95.855h28.645v241.426h-28.645z" fill="#8b818e"/></g><g><path d="m469.625 318.984h-421.875v-40.195c0-11.046 8.954-20 20-20h381.875c11.046 0 20 8.954 20 20z" fill="#756e78"/></g><g><path d="m449.625 258.789h-3.789v12.895c0 7.547-6.118 13.665-13.665 13.665h-384.421v33.635h421.875v-40.195c0-11.046-8.954-20-20-20z" fill="#665e66"/></g><g><path d="m497 452.265h-482c-8.284 0-15-6.716-15-15v-113.217c0-8.284 6.716-15 15-15h57.064l96.26 20.016 96.373-20.016h232.303c8.284 0 15 6.716 15 15v113.216c0 8.285-6.716 15.001-15 15.001z" fill="#a298a5"/></g><g><path d="m497 309.048h-11.963v101.253c0 8.284-6.716 15-15 15h-470.037v11.963c0 8.284 6.716 15 15 15h482c8.284 0 15-6.716 15-15v-113.216c0-8.284-6.716-15-15-15z" fill="#8b818e"/></g><g><path d="m438.607 492.547h-106.424c-2.761 0-5-2.239-5-5v-107.639h116.424v107.638c0 2.762-2.238 5.001-5 5.001z" fill="#f9efda"/></g><g><path d="m418.717 379.908v82.748c0 2.761-2.239 5-5 5h-86.534v19.89c0 2.761 2.239 5 5 5h106.424c2.761 0 5-2.239 5-5v-107.638z" fill="#f4ddb1"/></g><g><path d="m456.494 388.157h-143.548c-4.142 0-7.5-3.358-7.5-7.5s3.358-7.5 7.5-7.5h143.548c4.142 0 7.5 3.358 7.5 7.5s-3.358 7.5-7.5 7.5z" fill="#756e78"/></g><g><path d="m254.696 418.73h-172.632c-5.523 0-10-4.477-10-10v-99.682h192.633v99.682c-.001 5.523-4.478 10-10.001 10z" fill="#ddeafb"/></g><g><path d="m242.743 309.048v77.729c0 5.523-4.477 10-10 10h-160.679v11.953c0 5.523 4.477 10 10 10h172.633c5.523 0 10-4.477 10-10v-99.682z" fill="#cbe2ff"/></g><g><path d="m284.384 34.453h185.241v84.189h-185.241z" fill="#ddeafb"/></g><g><path d="m428.833 34.453v29.483c0 7.685-6.23 13.915-13.915 13.915h-130.534v40.792h185.241v-84.19z" fill="#cbe2ff"/></g><g><g><path d="m469.625 133.643h-185.241c-8.284 0-15-6.716-15-15v-84.19c0-8.284 6.716-15 15-15h185.241c8.284 0 15 6.716 15 15v84.189c0 8.285-6.716 15.001-15 15.001zm-168.241-30h151.241c1.105 0 2-.895 2-2v-50.19c0-1.105-.895-2-2-2h-151.241c-1.105 0-2 .895-2 2v50.189c0 1.105.895 2.001 2 2.001z" fill="#756e78"/></g></g><g><g><path d="m469.625 19.453h-1.744v90.494c0 3.839-3.112 6.952-6.952 6.952h-191.545v1.744c0 8.284 6.716 15 15 15h185.241c8.284 0 15-6.716 15-15v-84.19c0-8.284-6.716-15-15-15z" fill="#665e66"/></g></g><g><g><path d="m384.72 471.207c-4.142 0-7.5-3.358-7.5-7.5v-29.426c0-4.142 3.358-7.5 7.5-7.5s7.5 3.358 7.5 7.5v29.426c0 4.142-3.358 7.5-7.5 7.5z" fill="#756e78"/></g><g><path d="m357.425 471.207c-4.142 0-7.5-3.358-7.5-7.5v-29.426c0-4.142 3.358-7.5 7.5-7.5s7.5 3.358 7.5 7.5v29.426c0 4.142-3.358 7.5-7.5 7.5z" fill="#756e78"/></g><g><path d="m413.365 471.207c-4.142 0-7.5-3.358-7.5-7.5v-29.426c0-4.142 3.358-7.5 7.5-7.5s7.5 3.358 7.5 7.5v29.426c0 4.142-3.358 7.5-7.5 7.5z" fill="#756e78"/></g></g><path d="m219.519 309.048v27.088h-24.206v-27.088h-15v27.088h-23.979v-27.088h-15v27.088h-24.092v-27.088h-15v70.709c0 6.341 5.159 11.5 11.5 11.5h109.277c6.341 0 11.5-5.159 11.5-11.5v-70.709zm-78.185 67.21h-24.092v-25.121h24.092zm38.978 0h-23.979v-25.121h23.979zm39.207 0h-24.206v-25.121h24.206z" fill="#9dc6fb"/><g><circle cx="405.992" cy="344.129" fill="#ccf49f" r="9.649"/></g><g><circle cx="443.607" cy="344.129" fill="#e4989d" r="9.649"/></g></g></svg>