<svg id="flat" height="512" viewBox="0 0 512 512" width="512" xmlns="http://www.w3.org/2000/svg"><path d="m79.2324 448h208.7676a24 24 0 0 0 24-24v-200h-266.16a21.84 21.84 0 0 0 -21.84 21.84v146.9276a55.2324 55.2324 0 0 0 55.2324 55.2324z" fill="#9e593c"/><path d="m168 360 24 24 24-24 24 24 24-24 24 24 24-24 24 24 24-24v-264h-160a32 32 0 0 0 -32 32z" fill="#6e8beb"/><path d="m24 421.9796a32 32 0 0 0 25.47346 31.3274l164.33133 34.23569a21.7573 21.7573 0 0 0 4.43756.45731 21.75763 21.75763 0 0 0 21.75765-21.75763v-135.62422a32 32 0 0 0 -26.17314-31.465l-171.96678-31.84573a21.83621 21.83621 0 0 1 -17.86008-21.47116z" fill="#b36f42"/><path d="m328 272h-64a32 32 0 0 1 -32-32v-112a32 32 0 0 0 -32-32h128z" fill="#5771e5"/><path d="m456 272a32 32 0 0 0 32-32v-216l-24 24-24-24-24 24-24-24-24 24-24-24-24 24-24-24v216a32 32 0 0 1 -32 32z" fill="#89a8f5"/><circle cx="392" cy="88" fill="#a2c1fa" r="16"/><g fill="#6e8beb"><path d="m344 128h40v16h-40z"/><path d="m400 128h40v16h-40z"/><path d="m360 160h64v16h-64z"/><path d="m320 192h24v16h-24z"/><path d="m320 224h48v16h-48z"/><path d="m360 192h16v16h-16z"/><path d="m424 192h40v16h-40z"/><path d="m440 224h24v16h-24z"/></g></svg>