<svg enable-background="new 0 0 64 64" height="512" viewBox="0 0 64 64" width="512" xmlns="http://www.w3.org/2000/svg"><g id="Icons"><g><g><path d="m22.001 36c.857 0 1.67-.183 2.407-.506.453-1.363 1.263-2.564 2.319-3.494-1.668-1.467-2.727-3.61-2.727-6 0-.545.056-1.078.16-1.593-.671-.259-1.397-.407-2.16-.407-3.314 0-6 2.686-6 6 0 3.313 2.686 6 5.999 6h.002c-.001 0-.001 0 0 0z" fill="#f0c8a0"/></g><g><path d="m24 26c0-.545.056-1.078.16-1.593-.671-.259-1.397-.407-2.16-.407-3.314 0-6 2.686-6 6h9.085c-.687-1.177-1.085-2.541-1.085-4z" fill="#fab400"/></g><g><path d="m24.167 36.41c-.673-.261-1.402-.41-2.166-.41 0 0 0 0-.001 0s0 0-.001 0c-3.313 0-5.999 2.686-5.999 6v2h8v-6c0-.545.062-1.076.167-1.59z" fill="#fa6450"/></g><g><path d="m24 36.349c-.626-.222-1.298-.349-2-.349-3.314 0-6 2.686-6 6v2h4v-2c0-2.611 1.671-4.827 4-5.651z" fill="#dc4632"/></g><g><path d="m20 30c0-2.611 1.671-4.827 4-5.651-.626-.222-1.298-.349-2-.349-3.314 0-6 2.686-6 6s2.686 6 6 6c.702 0 1.374-.127 2-.349-2.329-.824-4-3.04-4-5.651z" fill="#d2aa82"/></g><g><path d="m24 24.349c-.626-.222-1.298-.349-2-.349-3.314 0-6 2.686-6 6h4c0-2.611 1.671-4.827 4-5.651z" fill="#dc9600"/></g><g><path d="m32 12c-2.209 0-4-1.791-4-4 0-2.209 1.791-4 4-4 2.209 0 4 1.791 4 4 0 2.209-1.791 4-4 4z" fill="#64c8f0"/></g><g><path d="m30 8c0-1.862 1.278-3.413 3-3.859-.321-.083-.653-.141-1-.141-2.209 0-4 1.791-4 4s1.791 4 4 4c.347 0 .679-.058 1-.141-1.722-.447-3-1.997-3-3.859z" fill="#46aad2"/></g><g><path d="m32 60c-2.209 0-4-1.791-4-4 0-2.209 1.791-4 4-4 2.209 0 4 1.791 4 4 0 2.209-1.791 4-4 4z" fill="#64c8f0"/></g><g><path d="m52.828 11.172c-1.562-1.562-4.095-1.562-5.657 0s-1.562 4.095 0 5.657 4.095 1.562 5.657 0c1.563-1.563 1.563-4.095 0-5.657z" fill="#64c8f0"/></g><g><path d="m16.828 47.172c-1.562-1.562-4.095-1.562-5.657 0-1.562 1.562-1.562 4.095 0 5.657s4.095 1.562 5.657 0c1.563-1.563 1.563-4.095 0-5.657z" fill="#64c8f0"/></g><g><path d="m52 32c0-2.209 1.791-4 4-4 2.209 0 4 1.791 4 4 0 2.209-1.791 4-4 4-2.209 0-4-1.791-4-4z" fill="#64c8f0"/></g><g><path d="m4 32c0-2.209 1.791-4 4-4 2.209 0 4 1.791 4 4 0 2.209-1.791 4-4 4-2.209 0-4-1.791-4-4z" fill="#64c8f0"/></g><g><path d="m52.828 47.172c-1.562-1.562-4.095-1.562-5.657 0-1.562 1.562-1.562 4.095 0 5.657s4.095 1.562 5.657 0c1.563-1.563 1.563-4.095 0-5.657z" fill="#64c8f0"/></g><g><path d="m38 8c0 .253-.021.502-.052.747 2.352.602 4.565 1.553 6.582 2.793.274-.608.65-1.171 1.122-1.667-2.375-1.469-5.005-2.561-7.807-3.205.099.429.155.874.155 1.332z" fill="#fab400"/></g><g><path d="m56 38c-.253 0-.502-.021-.747-.052-.602 2.352-1.553 4.564-2.794 6.582.608.274 1.171.65 1.667 1.122 1.469-2.375 2.561-5.005 3.205-7.807-.428.099-.873.155-1.331.155z" fill="#fab400"/></g><g><path d="m8 26c.253 0 .502.021.747.052.602-2.352 1.553-4.564 2.794-6.582-.608-.274-1.171-.65-1.667-1.122-1.469 2.375-2.561 5.005-3.205 7.807.428-.099.873-.155 1.331-.155z" fill="#fab400"/></g><g><path d="m18.348 9.873c.472.496.848 1.059 1.122 1.667 2.017-1.24 4.23-2.191 6.582-2.793-.031-.245-.052-.494-.052-.747 0-.458.056-.903.154-1.332-2.802.644-5.431 1.737-7.806 3.205z" fill="#fab400"/></g><g><path d="m11.541 44.531c-1.24-2.018-2.192-4.23-2.794-6.582-.245.03-.494.051-.747.051-.458 0-.903-.056-1.332-.154.644 2.802 1.737 5.432 3.205 7.807.497-.472 1.059-.849 1.668-1.122z" fill="#fab400"/></g><g><path d="m52.459 19.469c1.24 2.018 2.192 4.23 2.794 6.582.245-.03.494-.051.747-.051.458 0 .903.056 1.332.154-.644-2.802-1.737-5.432-3.205-7.807-.497.472-1.059.849-1.668 1.122z" fill="#fab400"/></g><g><path d="m45.652 54.127c-.472-.496-.848-1.059-1.122-1.667-2.017 1.24-4.23 2.191-6.582 2.793.031.245.052.494.052.747 0 .458-.056.903-.154 1.332 2.802-.644 5.431-1.737 7.806-3.205z" fill="#fab400"/></g><g><path d="m26 56c0-.253.021-.502.052-.747-2.352-.602-4.565-1.553-6.582-2.793-.274.608-.65 1.171-1.122 1.667 2.375 1.469 5.005 2.561 7.807 3.205-.099-.429-.155-.874-.155-1.332z" fill="#fab400"/></g><g><path d="m16.828 11.172c-1.562-1.562-4.095-1.562-5.657 0s-1.562 4.095 0 5.657 4.095 1.562 5.657 0c1.563-1.563 1.563-4.095 0-5.657z" fill="#64c8f0"/></g><g><path d="m6 32c0-1.862 1.278-3.413 3-3.859-.321-.083-.653-.141-1-.141-2.209 0-4 1.791-4 4s1.791 4 4 4c.347 0 .679-.058 1-.141-1.722-.447-3-1.997-3-3.859z" fill="#46aad2"/></g><g><path d="m30 56c0-1.862 1.278-3.413 3-3.859-.321-.083-.653-.141-1-.141-2.209 0-4 1.791-4 4s1.791 4 4 4c.347 0 .679-.058 1-.141-1.722-.447-3-1.997-3-3.859z" fill="#46aad2"/></g><g><path d="m54 32c0-1.862 1.278-3.413 3-3.859-.321-.083-.653-.141-1-.141-2.209 0-4 1.791-4 4s1.791 4 4 4c.347 0 .679-.058 1-.141-1.722-.447-3-1.997-3-3.859z" fill="#46aad2"/></g><g><path d="m12 14c0-1.862 1.278-3.413 3-3.859-.321-.083-.653-.141-1-.141-2.209 0-4 1.791-4 4s1.791 4 4 4c.347 0 .679-.058 1-.141-1.722-.447-3-1.997-3-3.859z" fill="#46aad2"/></g><g><path d="m48 14c0-1.862 1.278-3.413 3-3.859-.321-.083-.653-.141-1-.141-2.209 0-4 1.791-4 4s1.791 4 4 4c.347 0 .679-.058 1-.141-1.722-.447-3-1.997-3-3.859z" fill="#46aad2"/></g><g><path d="m48 50c0-1.862 1.278-3.413 3-3.859-.321-.083-.653-.141-1-.141-2.209 0-4 1.791-4 4s1.791 4 4 4c.347 0 .679-.058 1-.141-1.722-.447-3-1.997-3-3.859z" fill="#46aad2"/></g><g><path d="m12 50c0-1.862 1.278-3.413 3-3.859-.321-.083-.653-.141-1-.141-2.209 0-4 1.791-4 4s1.791 4 4 4c.347 0 .679-.058 1-.141-1.722-.447-3-1.997-3-3.859z" fill="#46aad2"/></g><g><path d="m38 44h-12v-6c0-3.314 2.686-6 6-6 3.314 0 6 2.686 6 6z" fill="#3cc8b4"/></g><g><path d="m34 32.349c-.626-.222-1.298-.349-2-.349-3.314 0-6 2.686-6 6v6h4v-6c0-2.611 1.671-4.827 4-5.651z" fill="#1eaa96"/></g><g><path d="m42 36c-.765 0-1.494.149-2.167.41.105.514.167 1.045.167 1.59v6h8v-2c0-3.314-2.686-6-6-6z" fill="#fa6450"/></g><g><path d="m42 36c-.765 0-1.494.149-2.167.41.105.514.167 1.045.167 1.59v4c0-2.611 1.671-4.827 4-5.651-.626-.222-1.298-.349-2-.349z" fill="#dc4632"/></g><g><path d="m42 24c-.763 0-1.489.148-2.16.407.104.515.16 1.048.16 1.593 0 2.39-1.059 4.533-2.726 6 1.056.929 1.865 2.131 2.319 3.494.737.324 1.55.506 2.407.506 3.314 0 6-2.686 6-6s-2.686-6-6-6z" fill="#f0c8a0"/></g><g><path d="m40 26c0 1.459-.398 2.823-1.085 4h9.085c0-3.314-2.686-6-6-6-.763 0-1.489.148-2.16.407.104.515.16 1.048.16 1.593z" fill="#fab400"/></g><g><path d="m40 30c0-2.611 1.671-4.827 4-5.651-.626-.222-1.298-.349-2-.349-.763 0-1.489.148-2.16.407.104.515.16 1.048.16 1.593 0 2.39-1.059 4.533-2.726 6 1.056.929 1.865 2.131 2.319 3.494.737.324 1.55.506 2.407.506.702 0 1.374-.127 2-.349-2.329-.824-4-3.04-4-5.651z" fill="#d2aa82"/></g><g><path d="m42 24c-.763 0-1.489.148-2.16.407.104.515.16 1.048.16 1.593 0 1.459-.398 2.823-1.085 4h1.085c0-2.611 1.671-4.827 4-5.651-.626-.222-1.298-.349-2-.349z" fill="#dc9600"/></g><g><path d="m32 32c-3.314 0-6-2.686-6-6 0-3.314 2.686-6 6-6 3.314 0 6 2.686 6 6 0 3.314-2.686 6-6 6z" fill="#f0c8a0"/></g><g><path d="m26 26c0-3.314 2.686-6 6-6 3.314 0 6 2.686 6 6z" fill="#fab400"/></g><g><path d="m30 26c0-2.611 1.671-4.827 4-5.651-.626-.222-1.298-.349-2-.349-3.314 0-6 2.686-6 6s2.686 6 6 6c.702 0 1.374-.127 2-.349-2.329-.824-4-3.04-4-5.651z" fill="#d2aa82"/></g><g><path d="m34 20.349c-.626-.222-1.298-.349-2-.349-3.314 0-6 2.686-6 6h4c0-2.611 1.671-4.827 4-5.651z" fill="#dc9600"/></g></g></g></svg>