<svg height="512" viewBox="0 0 512 512" width="512" xmlns="http://www.w3.org/2000/svg"><g><g fill="#57a4ff"><path d="m496 76v28h-480v-28a19.994 19.994 0 0 1 20-20h440a19.994 19.994 0 0 1 20 20z"/><path d="m172.28 275.72a39.994 39.994 0 0 0 -68.28 28.28v1.97h.01a64.021 64.021 0 0 0 79.99 0v-1.97a39.875 39.875 0 0 0 -11.72-28.28zm91.72 12.28v40h192v-40z"/><path d="m184 304v1.97a64.021 64.021 0 0 1 -79.99 0h-.01v-1.97a40 40 0 0 1 80 0z"/><path d="m264 288h192v40h-192z"/></g><g fill="#004fac"><path d="m476 48h-440a28.031 28.031 0 0 0 -28 28v360a28.031 28.031 0 0 0 28 28h440a28.031 28.031 0 0 0 28-28v-360a28.031 28.031 0 0 0 -28-28zm12 388a12.01 12.01 0 0 1 -12 12h-440a12.01 12.01 0 0 1 -12-12v-324h464zm0-340h-464v-20a12.01 12.01 0 0 1 12-12h440a12.01 12.01 0 0 1 12 12z"/><path d="m40 88h8a8 8 0 0 0 0-16h-8a8 8 0 0 0 0 16z"/><path d="m72 88h8a8 8 0 0 0 0-16h-8a8 8 0 0 0 0 16z"/><path d="m104 88h8a8 8 0 0 0 0-16h-8a8 8 0 0 0 0 16z"/><path d="m144 184a72 72 0 1 0 72 72 72.083 72.083 0 0 0 -72-72zm0 128a55.729 55.729 0 0 1 -31.93-10.03 31.995 31.995 0 0 1 63.86 0 55.729 55.729 0 0 1 -31.93 10.03zm-16-72a16 16 0 1 1 16 16 16.021 16.021 0 0 1 -16-16zm61.48 48.62a47.8 47.8 0 0 0 -11.54-18.56 48.761 48.761 0 0 0 -10.72-8.08 32 32 0 1 0 -46.43.02 48.245 48.245 0 0 0 -22.25 26.64 56 56 0 1 1 90.94-.02z"/><path d="m176 336h-64a8 8 0 0 0 0 16h64a8 8 0 0 0 0-16z"/><path d="m160 360h-32a8 8 0 0 0 0 16h32a8 8 0 0 0 0-16z"/><path d="m456 216h-192a8 8 0 0 0 0 16h192a8 8 0 0 0 0-16z"/><path d="m264 264h112a8 8 0 0 0 0-16h-112a8 8 0 0 0 0 16z"/><path d="m416 264a8 8 0 0 0 0-16h-16a8 8 0 0 0 0 16z"/><path d="m456 280h-192a8 8 0 0 0 -8 8v40a8 8 0 0 0 8 8h192a8 8 0 0 0 8-8v-40a8 8 0 0 0 -8-8zm-8 40h-176v-24h176z"/></g></g></svg>