<svg id="Growth_marketing" height="512" viewBox="0 0 64 64" width="512" xmlns="http://www.w3.org/2000/svg" data-name="Growth marketing"><path d="m40 8.67 5-5.67 15 17h-7v41h-16v-13.5a2.5 2.5 0 0 0 5 0v-6.59a6 6 0 0 0 -1-11.91h-4v-9h-7l9.71-11z" fill="#78b9eb"/><path d="m39.71 9-9.71 11h7v9h-7l-12-6v8h-1.5a3.5 3.5 0 0 0 -3.5 3.5 3.517 3.517 0 0 0 3.5 3.5h1.5v9l12-6h7v12h-33v-44z" fill="#78b9eb"/><g fill="#006df0"><path d="m60.75 19.34-15-17a1.033 1.033 0 0 0 -1.5 0l-3.25 3.68v-1.02a3.009 3.009 0 0 0 -3-3h-32a3.009 3.009 0 0 0 -3 3v54a3.009 3.009 0 0 0 3 3h47a1 1 0 0 0 1-1v-40h6a1 1 0 0 0 .75-1.66zm-55.75-14.34a1 1 0 0 1 1-1h32a1 1 0 0 1 1 1v3h-34zm31 55h-30a1 1 0 0 1 -1-1v-5h31zm0-8h-31v-42h32.49l-8.24 9.34a1 1 0 0 0 .75 1.66h6v7h-5.76l-11.79-5.89a1 1 0 0 0 -1.45.89v7h-.5a4.5 4.5 0 0 0 0 9h.5v8a1 1 0 0 0 .47.85 1.014 1.014 0 0 0 .53.15 1.03 1.03 0 0 0 .45-.11l11.79-5.89h5.76zm-7-22.38v10.76l-10 5v-20.76zm-12 2.38v5h-.5a2.5 2.5 0 0 1 0-5zm14 8v-10h10a5 5 0 0 1 .82 9.93 5.439 5.439 0 0 1 -.82.07zm10 2v5.5a1.5 1.5 0 0 1 -3 0v-5.5zm12-23a1 1 0 0 0 -1 1v40h-14v-9.35a3.446 3.446 0 0 0 1.5.35 3.5 3.5 0 0 0 3.5-3.5v-5.8a6.96 6.96 0 0 0 5-6.7 7.016 7.016 0 0 0 -7-7h-3v-8a1 1 0 0 0 -1-1h-4.78l12.78-14.49 12.78 14.49z"/><path d="m20 56h4v2h-4z"/></g></svg>