<svg id="Capa_1" enable-background="new 0 0 512 512" height="512" viewBox="0 0 512 512" width="512" xmlns="http://www.w3.org/2000/svg"><g><g><path d="m27.963 48.963v66.846h30v-66.846c0-10.456 8.506-18.963 18.963-18.963l11.909-11.416-11.909-18.584c-26.999 0-48.963 21.965-48.963 48.963z" fill="#ece8e7"/><path d="m76.927 0v30c10.457 0 18.964 8.507 18.964 18.963v15.441h30v-15.441c0-26.998-21.965-48.963-48.964-48.963z" fill="#ded6d4"/></g><g><g><path d="m512 130.902v59.843l-63.653 29.569-22.504-56.297 22.504-33.115z" fill="#fc0"/><path d="m384.065 130.902h64.282v89.412l-64.282-29.569z" fill="#ffea2e"/></g><path d="m512 250.288-63.653 29.458-26.244-59.432 26.244-29.922h63.653z" fill="#ffea2e"/><path d="m384.065 250.288-20.728-26.763 20.728-33.133h64.282v89.354z" fill="#ffff6e"/><path d="m384.065 250.288-64.042 29.458-26.244-59.432 26.244-29.922h64.042z" fill="#ffea2e"/><path d="m256 250.288v-59.896h64.023v89.354z" fill="#ffff6e"/></g><g><path d="m0 100.809v105.041h76.926l21.707-52.521-21.707-52.52z" fill="#1c5e74"/><path d="m76.926 100.809h76.926v105.041h-76.926z" fill="#0a3c53"/></g><g><path d="m85 250.288h-85v85.025l21.314 45.844-21.314 45.843v85h85l171-28.736v-194.862z" fill="#1dd575"/><path d="m512 250.288h-85l-171 38.114v194.862l171 28.736h85v-85l-29.243-45.843 29.243-45.844z" fill="#179e83"/><g><path d="m85 250.288c0 46.944-38.056 85.026-85 85.026v91.686c46.944 0 85 38.056 85 85h171l30.855-130.843-30.855-130.869z" fill="#179e83"/></g><path d="m427 250.288h-171v261.712h171c0-46.944 38.056-85 85-85v-91.687c-46.944 0-85-38.081-85-85.025z" fill="#108279"/><g><g><path d="m110.89 366.157h30v30h-30z" fill="#1dd575"/></g><g><path d="m371.109 366.157h30v30h-30z" fill="#179e83"/></g></g><path d="m182.849 381.157c0 40.335 32.815 73.151 73.151 73.151l24.91-73.151-24.91-73.151c-40.336 0-73.151 32.815-73.151 73.151z" fill="#1dd575"/><path d="m256 308.006v146.302c40.335 0 73.15-32.815 73.15-73.151s-32.815-73.151-73.15-73.151z" fill="#179e83"/></g></g></svg>