<svg enable-background="new 0 0 64 64" height="512" viewBox="0 0 64 64" width="512" xmlns="http://www.w3.org/2000/svg"><g id="Icons"><g><g><path d="m52 57h-8c-1.654 0-3-1.346-3-3v-14c0-.553.447-1 1-1s1 .447 1 1v14c0 .552.448 1 1 1h8c.553 0 1 .447 1 1s-.447 1-1 1z" fill="#0a5078"/></g><g><path d="m20 57h-8c-.553 0-1-.447-1-1s.447-1 1-1h8c.552 0 1-.448 1-1v-14c0-.553.447-1 1-1s1 .447 1 1v14c0 1.654-1.346 3-3 3z" fill="#0a5078"/></g><g><path d="m32 57c-.553 0-1-.447-1-1v-16c0-.553.447-1 1-1s1 .447 1 1v16c0 .553-.447 1-1 1z" fill="#00325a"/></g><g><path d="m32 25c-.553 0-1-.447-1-1v-16c0-.553.447-1 1-1s1 .447 1 1v16c0 .553-.447 1-1 1z" fill="#0a5078"/></g><g><g><path d="m42 25c-.553 0-1-.447-1-1v-14c0-1.654 1.346-3 3-3h8c.553 0 1 .447 1 1s-.447 1-1 1h-8c-.552 0-1 .448-1 1v14c0 .553-.447 1-1 1z" fill="#0a5078"/></g><g><g><circle cx="52" cy="8" fill="#00a0c8" r="3"/></g><g><path d="m52 6c1.103 0 2 .897 2 2s-.897 2-2 2-2-.897-2-2 .897-2 2-2m0-2c-2.209 0-4 1.791-4 4s1.791 4 4 4 4-1.791 4-4-1.791-4-4-4z" fill="#fab400"/></g></g></g><g><g><path d="m22 25c-.553 0-1-.447-1-1v-14c0-.552-.448-1-1-1h-8c-.553 0-1-.447-1-1s.447-1 1-1h8c1.654 0 3 1.346 3 3v14c0 .553-.447 1-1 1z" fill="#0a5078"/></g><g><g><circle cx="12" cy="8" fill="#00a0c8" r="3"/></g><g><path d="m12 6c1.103 0 2 .897 2 2s-.897 2-2 2-2-.897-2-2 .897-2 2-2m0-2c-2.209 0-4 1.791-4 4s1.791 4 4 4 4-1.791 4-4-1.791-4-4-4z" fill="#fab400"/></g></g></g><g><g><circle cx="32" cy="32" fill="#fab400" r="13"/></g><g fill="#c80a50"><path d="m20 32c0-6.617 5.383-12 12-12 3.364 0 6.497 1.388 8.764 3.822l-1.471 1.471c-.286.286-.372.716-.217 1.09.154.374.52.617.924.617h4c.553 0 1-.447 1-1v-4c0-.404-.243-.77-.617-.924-.374-.155-.804-.069-1.09.217l-1.114 1.114c-2.641-2.808-6.278-4.407-10.179-4.407-7.72 0-14 6.28-14 14 0 .553.447 1 1 1s1-.447 1-1z"/><path d="m45 31c-.553 0-1 .447-1 1 0 6.617-5.383 12-12 12-3.364 0-6.497-1.388-8.764-3.822l1.471-1.471c.286-.286.372-.716.217-1.09-.154-.374-.52-.617-.924-.617h-4c-.553 0-1 .447-1 1v4c0 .404.243.77.617.924.124.052.254.076.383.076.26 0 .516-.102.707-.293l1.114-1.114c2.641 2.808 6.278 4.407 10.179 4.407 7.72 0 14-6.28 14-14 0-.553-.447-1-1-1z"/></g><g><path d="m24.938 34.768 1.167-.674c-.066-.355-.105-.72-.105-1.094s.039-.739.104-1.094l-1.167-.674c-.478-.276-.642-.888-.366-1.366l1-1.732c.276-.478.888-.642 1.366-.366l.591.341c.324.187.732.189 1.038-.025.281-.196.579-.368.892-.514.34-.158.542-.513.542-.887v-.683c0-.552.448-1 1-1h2c.552 0 1 .448 1 1v.683c0 .374.202.729.541.887.313.146.611.318.892.514.306.214.715.212 1.038.025l.591-.341c.478-.276 1.09-.112 1.366.366l1 1.732c.276.478.112 1.09-.366 1.366l-1.167.674c.066.355.105.72.105 1.094s-.039.739-.104 1.094l1.167.674c.478.276.642.888.366 1.366l-1 1.732c-.276.478-.888.642-1.366.366l-.591-.341c-.324-.187-.732-.189-1.038.025-.281.196-.579.368-.892.514-.34.158-.542.513-.542.887v.683c0 .552-.448 1-1 1h-2c-.552 0-1-.448-1-1v-.683c0-.374-.202-.729-.541-.887-.313-.146-.611-.318-.892-.514-.306-.214-.715-.212-1.038-.025l-.591.341c-.478.276-1.09.112-1.366-.366l-1-1.732c-.276-.478-.112-1.09.366-1.366zm7.062 2.232c2.209 0 4-1.791 4-4s-1.791-4-4-4-4 1.791-4 4 1.791 4 4 4z" fill="#dc9600"/></g><g><path d="m24.938 33.768 1.167-.674c-.066-.355-.105-.72-.105-1.094s.039-.739.104-1.094l-1.167-.674c-.478-.276-.642-.888-.366-1.366l1-1.732c.276-.478.888-.642 1.366-.366l.591.341c.324.187.732.189 1.038-.025.281-.196.579-.368.892-.514.34-.158.542-.513.542-.887v-.683c0-.552.448-1 1-1h2c.552 0 1 .448 1 1v.683c0 .374.202.729.541.887.313.146.611.318.892.514.306.214.715.212 1.038.025l.591-.341c.478-.276 1.09-.112 1.366.366l1 1.732c.276.478.112 1.09-.366 1.366l-1.167.674c.066.355.105.72.105 1.094s-.039.739-.104 1.094l1.167.674c.478.276.642.888.366 1.366l-1 1.732c-.276.478-.888.642-1.366.366l-.591-.341c-.324-.187-.732-.189-1.038.025-.281.196-.579.368-.892.514-.34.158-.542.513-.542.887v.683c0 .552-.448 1-1 1h-2c-.552 0-1-.448-1-1v-.683c0-.374-.202-.729-.541-.887-.313-.146-.611-.318-.892-.514-.306-.214-.715-.212-1.038-.025l-.591.341c-.478.276-1.09.112-1.366-.366l-1-1.732c-.276-.478-.112-1.09.366-1.366zm7.062 2.232c2.209 0 4-1.791 4-4s-1.791-4-4-4-4 1.791-4 4 1.791 4 4 4z" fill="#f0f0f0"/></g></g><g><g><circle cx="32" cy="8" fill="#00a0c8" r="3"/></g><g><path d="m32 6c1.103 0 2 .897 2 2s-.897 2-2 2-2-.897-2-2 .897-2 2-2m0-2c-2.209 0-4 1.791-4 4s1.791 4 4 4 4-1.791 4-4-1.791-4-4-4z" fill="#fab400"/></g></g><g><g><path d="m30 59c-.552 0-1-.448-1-1v-4c0-.552.448-1 1-1h4c.552 0 1 .448 1 1v4c0 .552-.448 1-1 1z" fill="#00a0c8"/></g><g><path d="m34 54v4h-4v-4zm0-2h-4c-1.105 0-2 .895-2 2v4c0 1.105.895 2 2 2h4c1.105 0 2-.895 2-2v-4c0-1.105-.895-2-2-2z" fill="#c80a50"/></g></g><g><g><path d="m50 59c-.552 0-1-.448-1-1v-4c0-.552.448-1 1-1h4c.552 0 1 .448 1 1v4c0 .552-.448 1-1 1z" fill="#00a0c8"/></g><g><path d="m54 54v4h-4v-4zm0-2h-4c-1.105 0-2 .895-2 2v4c0 1.105.895 2 2 2h4c1.105 0 2-.895 2-2v-4c0-1.105-.895-2-2-2z" fill="#c80a50"/></g></g><g><g><path d="m10 59c-.552 0-1-.448-1-1v-4c0-.552.448-1 1-1h4c.552 0 1 .448 1 1v4c0 .552-.448 1-1 1z" fill="#00a0c8"/></g><g><path d="m14 54v4h-4v-4zm0-2h-4c-1.105 0-2 .895-2 2v4c0 1.105.895 2 2 2h4c1.105 0 2-.895 2-2v-4c0-1.105-.895-2-2-2z" fill="#c80a50"/></g></g></g></g></svg>