<?xml version="1.0" encoding="iso-8859-1"?>
<!-- Generator: Adobe Illustrator 19.0.0, SVG Export Plug-In . SVG Version: 6.00 Build 0)  -->
<svg version="1.1" id="Capa_1" xmlns="http://www.w3.org/2000/svg" xmlns:xlink="http://www.w3.org/1999/xlink" x="0px" y="0px"
	 viewBox="0 0 512.002 512.002" style="enable-background:new 0 0 512.002 512.002;" xml:space="preserve">
<path style="fill:#FF4F19;" d="M147.353,397.002H52.642c-18.536,0-33.984-13.326-36.731-31.688L0.411,261.713
	c-1.605-10.732,1.533-21.6,8.612-29.815c7.062-8.196,17.311-12.897,28.119-12.897h125.71c10.809,0,21.058,4.701,28.119,12.897
	c7.079,8.216,10.218,19.083,8.612,29.814l-15.499,103.602C181.337,383.676,165.889,397.002,147.353,397.002z"/>
<path style="fill:#7984EB;" d="M132.221,339.002H61.414l-24.84-120.001h124.154L132.221,339.002z"/>
<path style="fill:#FFB64C;" d="M99.997,249.001c-37.495,0-68-30.505-68-68s30.505-68,68-68s68,30.505,68,68
	S137.493,249.001,99.997,249.001z"/>
<path style="fill:#FFF5CB;" d="M511.999,426.002H84.997V86h427.002V426.002z"/>
<rect x="298.501" y="86" style="fill:#FFDBA9;" width="213.501" height="340.002"/>
<g>
	<path style="fill:#4B5BE4;" d="M377.599,318.202c3.2,0,6.665,0.319,10.4,0.96c3.732,0.64,7.145,1.76,10.239,3.359
		c3.093,1.601,5.681,3.815,7.761,6.641c2.08,2.827,3.12,6.375,3.12,10.64v22.72h-24.641v-16.64c-0.107-1.385-0.455-2.505-1.04-3.36
		c-0.587-0.852-1.255-1.52-2-2c-0.747-0.479-1.495-0.772-2.24-0.88c-0.747-0.104-1.279-0.159-1.6-0.159v-21.281H377.599z
		 M417.439,318.202c3.2,0,6.665,0.319,10.4,0.96c3.732,0.64,7.145,1.76,10.24,3.359c3.092,1.601,5.68,3.815,7.76,6.641
		c2.08,2.827,3.12,6.375,3.12,10.64v22.72h-24.641v-16.64c-0.107-1.385-0.455-2.505-1.04-3.36c-0.587-0.852-1.255-1.52-2-2
		c-0.747-0.479-1.494-0.772-2.239-0.88c-0.748-0.104-1.28-0.159-1.601-0.159v-21.281H417.439z"/>
	<rect x="272.001" y="170.002" style="fill:#4B5BE4;" width="176.961" height="30"/>
	<rect x="147.96" y="240.002" style="fill:#4B5BE4;" width="301.002" height="30"/>
	<rect x="147.96" y="310.002" style="fill:#4B5BE4;" width="176.961" height="30"/>
</g>
<g>
	<path style="fill:#7984EB;" d="M179.479,192.52c-3.2,0-6.668-0.319-10.4-0.96c-3.735-0.64-7.147-1.76-10.24-3.359
		c-3.095-1.601-5.68-3.785-7.76-6.561c-2.08-2.772-3.12-6.345-3.12-10.72V148.2h24.64v16.64c0.105,1.495,0.453,2.641,1.04,3.44
		c0.585,0.8,1.253,1.439,2,1.92c0.745,0.479,1.493,0.774,2.24,0.88c0.745,0.107,1.28,0.16,1.601,0.16v21.28H179.479z M219.32,192.52
		c-3.2,0-6.668-0.319-10.4-0.96c-3.735-0.64-7.147-1.76-10.24-3.359c-3.095-1.601-5.68-3.785-7.76-6.561
		c-2.08-2.772-3.12-6.345-3.12-10.72V148.2h24.641v16.64c0.104,1.495,0.452,2.641,1.04,3.44c0.585,0.8,1.252,1.439,2,1.92
		c0.744,0.479,1.492,0.774,2.239,0.88c0.745,0.107,1.28,0.16,1.601,0.16v21.28H219.32z"/>
	<rect x="147.96" y="310.002" style="fill:#7984EB;" width="150.541" height="30"/>
	<rect x="148" y="240.002" style="fill:#7984EB;" width="150.501" height="30"/>
	<rect x="272.001" y="170.002" style="fill:#7984EB;" width="26.5" height="30"/>
</g>
<g>
</g>
<g>
</g>
<g>
</g>
<g>
</g>
<g>
</g>
<g>
</g>
<g>
</g>
<g>
</g>
<g>
</g>
<g>
</g>
<g>
</g>
<g>
</g>
<g>
</g>
<g>
</g>
<g>
</g>
</svg>
